<svg data-v-423bf9ae="" xmlns="http://www.w3.org/2000/svg" viewBox="0 0 378 91" class="iconLeftSlogan"><!----><!----><!----><g data-v-423bf9ae="" id="c1ee18ff-52d7-4bb1-93d6-c76a34d81e44" fill="black" transform="matrix(5.836575485636349,0,0,5.836575485636349,106.43412326195428,-14.766535573255624)"><path d="M9.24 3.04L5.70 12.67L3.66 12.67L0.10 3.04L2.20 3.04L4.18 9.23L4.18 9.23Q4.37 9.83 4.69 11.05L4.69 11.05L4.83 10.46L5.18 9.23L7.16 3.04L9.24 3.04ZM12.24 3.94L10.32 3.94L10.32 2.53L12.24 2.53L12.24 3.94ZM12.24 12.67L10.32 12.67L10.32 5.28L12.24 5.28L12.24 12.67ZM16.10 12.80L16.10 12.80L16.10 12.80Q15.25 12.80 14.79 12.34L14.79 12.34L14.79 12.34Q14.33 11.87 14.33 10.94L14.33 10.94L14.33 6.58L13.40 6.58L13.40 5.28L14.43 5.28L15.03 3.54L16.24 3.54L16.24 5.28L17.64 5.28L17.64 6.58L16.24 6.58L16.24 10.42L16.24 10.42Q16.24 10.96 16.44 11.21L16.44 11.21L16.44 11.21Q16.65 11.47 17.08 11.47L17.08 11.47L17.08 11.47Q17.30 11.47 17.72 11.38L17.72 11.38L17.72 12.56L17.72 12.56Q17.01 12.80 16.10 12.80ZM20.58 12.81L20.58 12.81L20.58 12.81Q19.50 12.81 18.90 12.23L18.90 12.23L18.90 12.23Q18.30 11.64 18.30 10.58L18.30 10.58L18.30 10.58Q18.30 9.43 19.05 8.83L19.05 8.83L19.05 8.83Q19.80 8.23 21.22 8.22L21.22 8.22L22.81 8.19L22.81 7.81L22.81 7.81Q22.81 7.09 22.56 6.74L22.56 6.74L22.56 6.74Q22.31 6.38 21.73 6.38L21.73 6.38L21.73 6.38Q21.20 6.38 20.95 6.63L20.95 6.63L20.95 6.63Q20.70 6.87 20.64 7.43L20.64 7.43L18.63 7.33L18.63 7.33Q18.82 6.25 19.62 5.70L19.62 5.70L19.62 5.70Q20.43 5.14 21.81 5.14L21.81 5.14L21.81 5.14Q23.21 5.14 23.97 5.83L23.97 5.83L23.97 5.83Q24.73 6.52 24.73 7.79L24.73 7.79L24.73 10.49L24.73 10.49Q24.73 11.11 24.87 11.34L24.87 11.34L24.87 11.34Q25.01 11.58 25.34 11.58L25.34 11.58L25.34 11.58Q25.56 11.58 25.76 11.54L25.76 11.54L25.76 12.58L25.76 12.58Q25.59 12.62 25.46 12.65L25.46 12.65L25.46 12.65Q25.32 12.69 25.18 12.71L25.18 12.71L25.18 12.71Q25.05 12.73 24.89 12.74L24.89 12.74L24.89 12.74Q24.74 12.76 24.53 12.76L24.53 12.76L24.53 12.76Q23.81 12.76 23.46 12.40L23.46 12.40L23.46 12.40Q23.12 12.04 23.05 11.35L23.05 11.35L23.01 11.35L23.01 11.35Q22.20 12.81 20.58 12.81ZM22.81 9.63L22.81 9.25L21.83 9.26L21.83 9.26Q21.16 9.29 20.88 9.41L20.88 9.41L20.88 9.41Q20.60 9.53 20.45 9.78L20.45 9.78L20.45 9.78Q20.30 10.02 20.30 10.43L20.30 10.43L20.30 10.43Q20.30 10.96 20.55 11.21L20.55 11.21L20.55 11.21Q20.79 11.47 21.19 11.47L21.19 11.47L21.19 11.47Q21.64 11.47 22.02 11.22L22.02 11.22L22.02 11.22Q22.39 10.98 22.60 10.54L22.60 10.54L22.60 10.54Q22.81 10.11 22.81 9.63L22.81 9.63ZM28.57 12.67L26.65 12.67L26.65 2.53L28.57 2.53L28.57 12.67ZM43.20 12.67L41.20 12.67L40.35 10.21L36.67 10.21L35.82 12.67L33.80 12.67L37.32 3.04L39.70 3.04L43.20 12.67ZM38.65 5.00L38.51 4.53L38.47 4.68L38.47 4.68Q38.40 4.92 38.30 5.24L38.30 5.24L38.30 5.24Q38.21 5.55 37.13 8.70L37.13 8.70L39.89 8.70L38.94 5.93L38.65 5.00ZM46.46 3.94L44.54 3.94L44.54 2.53L46.46 2.53L46.46 3.94ZM46.46 12.67L44.54 12.67L44.54 5.28L46.46 5.28L46.46 12.67Z"></path></g><!----><g data-v-423bf9ae="" id="e3d59ef1-1201-47f3-8838-0f425e70c700" transform="matrix(1.082232169904638,0,0,1.082232169904638,-10.314380380578562,-8.692312533027028)" stroke="none" fill="black"><path d="M82.322 29.618a.803.803 0 0 1 .566 1.368.791.791 0 0 1-.563.233.818.818 0 0 1-.26-.042l-.374-.126-.126-.374a.798.798 0 0 1 .757-1.059m-43.77 59.019l.354.175a.801.801 0 1 1-1.155.717c0-.305.171-.58.447-.717l.354-.175m43.77-60.269a2.049 2.049 0 0 0-1.942 2.707L65.494 45.962H46.056l-8.414 8.414v33.317a2.05 2.05 0 1 0 1.818 0V55.129l7.348-7.348h19.437l15.42-15.42a2.06 2.06 0 0 0 2.107-.491 2.051 2.051 0 0 0-1.45-3.502z"></path><path d="M61.778 14.362a.801.801 0 0 1 .354 1.518l-.354.175-.354-.175a.797.797 0 0 1-.447-.717c0-.441.36-.801.801-.801M32.906 75.869l.354.175a.801.801 0 1 1-1.155.717c0-.305.171-.58.447-.717l.354-.175m28.872-62.757A2.051 2.051 0 0 0 60.869 17v16.186l-5.823 5.615H42.987l-10.99 10.99v25.133a2.05 2.05 0 0 0 .909 3.888 2.05 2.05 0 1 0 .909-3.888v-24.38l9.925-9.925h12.04l6.908-6.661V17a2.05 2.05 0 0 0-.91-3.888zM11.851 34.222a.795.795 0 0 1 .756 1.057l-.126.374-.374.126a.818.818 0 0 1-.26.042.796.796 0 0 1-.563-1.365.799.799 0 0 1 .567-.234m15.258 51.991l.354.175a.801.801 0 1 1-1.155.717c0-.305.171-.58.447-.717l.354-.175M11.851 32.971a2.051 2.051 0 1 0 .656 3.993l7.101 7.101v12.276l6.593 6.593v22.334a2.05 2.05 0 0 0 .909 3.888 2.051 2.051 0 0 0 .909-3.888V62.181l-6.593-6.593V43.312l-7.634-7.634a2.049 2.049 0 0 0-1.941-2.707zM74.423 19.9a.803.803 0 0 1 .566 1.368.791.791 0 0 1-.563.233.818.818 0 0 1-.26-.042l-.374-.126-.126-.374a.798.798 0 0 1 .757-1.059M62.998 39.507c.089 0 .176.014.26.042l.374.126.126.374a.799.799 0 0 1-1.322.823.796.796 0 0 1 0-1.132.783.783 0 0 1 .562-.233m11.425-20.858a2.049 2.049 0 0 0-1.942 2.707l-3.655 3.655v8.184l-5.169 5.168a2.06 2.06 0 0 0-.659-.108 2.051 2.051 0 1 0 1.946 1.394l5.701-5.701v-8.184l3.123-3.122c.213.072.436.108.659.108a2.051 2.051 0 0 0-.004-4.101zM88.149 36.869a.801.801 0 0 1 .354 1.518l-.354.175-.354-.175a.797.797 0 0 1-.447-.717c0-.442.36-.801.801-.801m-6.736 14.914c.089 0 .176.014.26.042l.374.126.126.374a.799.799 0 0 1-1.322.823.803.803 0 0 1 0-1.133.783.783 0 0 1 .562-.232m6.736-16.165a2.051 2.051 0 0 0-.909 3.888v5.966l-5.169 5.168a2.06 2.06 0 0 0-.659-.108 2.051 2.051 0 1 0 1.946 1.394l5.701-5.701v-6.719a2.05 2.05 0 0 0-.91-3.888z"></path><path d="M22.676 18.454a.801.801 0 0 1 .354 1.518l-.354.175-.354-.175a.797.797 0 0 1-.447-.717c0-.441.36-.801.801-.801m4.092 34.681l.354.175a.801.801 0 1 1-1.155.717c0-.305.171-.58.447-.717l.354-.175m-4.092-35.931a2.051 2.051 0 0 0-.909 3.888v8.765l4.092 4.092V52.19a2.05 2.05 0 0 0 .909 3.888 2.051 2.051 0 0 0 .909-3.888V33.196l-4.092-4.092v-8.012a2.05 2.05 0 0 0-.909-3.888zM14.492 24.592a.801.801 0 0 1 .354 1.518l-.354.175-.354-.175a.797.797 0 0 1-.447-.717c0-.441.36-.801.801-.801m4.691 8.777c.213 0 .413.083.563.233a.803.803 0 0 1-.566 1.368.792.792 0 0 1-.566-.235.795.795 0 0 1-.19-.823l.126-.374.374-.126a.782.782 0 0 1 .259-.043m-4.691-10.027a2.051 2.051 0 0 0-.909 3.888v2.627l3.655 3.655a2.049 2.049 0 0 0 1.942 2.707 2.051 2.051 0 1 0-.655-3.993l-3.122-3.122V27.23a2.05 2.05 0 0 0-.911-3.888zM30.86 14.362a.801.801 0 0 1 .354 1.518l-.354.175-.354-.175a.797.797 0 0 1-.447-.717c0-.441.36-.801.801-.801m20.455 16.363a.801.801 0 0 1 0 1.602.797.797 0 0 1-.717-.447l-.175-.353.175-.354a.8.8 0 0 1 .717-.448M30.86 13.112A2.051 2.051 0 0 0 29.951 17v4.673l10.763 10.763h8.765a2.05 2.05 0 1 0 0-1.818h-8.012l-9.697-9.697V17a2.05 2.05 0 0 0-.91-3.888z"></path><path d="M45.778 9.669c.214 0 .415.083.566.235a.796.796 0 0 1 .235.566.795.795 0 0 1-.797.799.818.818 0 0 1-.26-.042l-.374-.126-.126-.374a.798.798 0 0 1 .756-1.058m7.583 12.872a.801.801 0 0 1 0 1.602.797.797 0 0 1-.717-.447l-.175-.353.175-.354a.797.797 0 0 1 .717-.448M45.778 8.419a2.049 2.049 0 0 0-1.942 2.707l-6.078 6.078 7.047 7.047h6.719a2.05 2.05 0 1 0 0-1.818h-5.965l-5.229-5.229 4.792-4.792a2.06 2.06 0 0 0 2.107-.491 2.051 2.051 0 0 0-1.451-3.502z"></path><path d="M56.008 9.669a.803.803 0 0 1 .566 1.368.791.791 0 0 1-.563.233.818.818 0 0 1-.26-.042l-.374-.126-.126-.374a.799.799 0 0 1 .757-1.059m-5.286 5.285c.089 0 .176.014.26.042l.374.126.126.374a.799.799 0 0 1-1.322.823.796.796 0 0 1 0-1.132.787.787 0 0 1 .562-.233m5.286-6.535a2.049 2.049 0 0 0-1.942 2.707l-2.686 2.686a2.06 2.06 0 0 0-.659-.108 2.051 2.051 0 1 0 1.946 1.394l2.686-2.686c.213.072.436.108.659.108a2.051 2.051 0 0 0-.004-4.101zM32.311 30.13a.795.795 0 0 1 .756 1.057l-.126.374-.374.126a.818.818 0 0 1-.26.042.791.791 0 0 1-.563-.233.803.803 0 0 1 0-1.133.802.802 0 0 1 .567-.233m-.003 9.377c.089 0 .176.014.26.042l.374.126.126.374a.798.798 0 0 1-1.322.823.803.803 0 0 1 0-1.133.786.786 0 0 1 .562-.232m.003-10.628a2.051 2.051 0 1 0 .655 3.993l1.077 1.076v3.339l-1.076 1.076a2.06 2.06 0 0 0-.659-.108 2.051 2.051 0 1 0 1.946 1.394l1.609-1.609v-4.845l-1.609-1.609a2.049 2.049 0 0 0-1.943-2.707zM80.561 42.406a.803.803 0 0 1 .566 1.368.791.791 0 0 1-.563.233.818.818 0 0 1-.26-.042l-.374-.126-.126-.374a.798.798 0 0 1 .757-1.059M51.326 53.231c.305 0 .58.171.717.447l.175.354-.175.353a.801.801 0 1 1-.717-1.154m29.235-12.075a2.049 2.049 0 0 0-1.942 2.707l-9.261 9.261H53.163a2.05 2.05 0 0 0-3.888.909 2.051 2.051 0 0 0 3.888.909h16.949l9.793-9.793a2.06 2.06 0 0 0 2.107-.491 2.051 2.051 0 0 0-1.451-3.502zM11.851 44.452a.795.795 0 0 1 .756 1.057l-.126.374-.374.126a.818.818 0 0 1-.26.042.791.791 0 0 1-.563-.233.803.803 0 0 1 0-1.133.802.802 0 0 1 .567-.233m2.641 8.683l.354.175a.801.801 0 1 1-1.155.717c0-.305.171-.58.447-.717l.354-.175m-2.641-9.933a2.051 2.051 0 1 0 .655 3.993l1.077 1.076v3.919a2.05 2.05 0 0 0 .909 3.888 2.05 2.05 0 1 0 .909-3.888v-4.673l-1.609-1.609a2.049 2.049 0 0 0-1.941-2.706z"></path></g><!----><g data-v-423bf9ae="" id="a4ab48db-bb08-443c-9364-e0830bab4e7c" fill="black" transform="matrix(0.47816856334029756,0,0,0.47816856334029756,106.85520699111693,58.18774239437541)"><path d="M14.50 3.92L13.96 3.92L13.92 3.92L12.45 3.92L12.45 4.19C12.45 4.34 12.53 4.42 12.71 4.44L12.84 4.44C12.89 4.44 12.99 4.45 13.13 4.45C13.27 4.45 13.41 4.47 13.58 4.47L11.20 12.24C11.17 12.33 11.14 12.43 11.13 12.54C11.12 12.66 11.09 12.75 11.06 12.87C11.03 12.75 11.02 12.63 10.99 12.53L10.91 12.24L8.11 4.10C8.08 4.05 8.05 3.99 8.01 3.96C7.97 3.93 7.91 3.92 7.84 3.92L7.64 3.92C7.57 3.92 7.52 3.93 7.48 3.98C7.43 4.02 7.39 4.05 7.38 4.10L4.58 12.25C4.55 12.35 4.52 12.43 4.49 12.54C4.47 12.64 4.45 12.75 4.42 12.88C4.41 12.78 4.38 12.67 4.35 12.54C4.34 12.43 4.31 12.33 4.28 12.24L1.90 4.47C2.07 4.47 2.21 4.45 2.34 4.45C2.46 4.45 2.55 4.44 2.60 4.44L2.72 4.44C2.90 4.42 3.00 4.34 3.00 4.19L3.00 3.92L1.53 3.92L0.94 3.92L0.34 3.92L0.34 4.19C0.34 4.34 0.43 4.42 0.62 4.44L0.71 4.44C0.76 4.44 0.80 4.45 0.87 4.45C0.94 4.45 1.02 4.47 1.11 4.47L4.06 13.82L4.69 13.82L7.63 5.22C7.67 5.11 7.70 5.00 7.73 4.87C7.76 5.00 7.78 5.11 7.83 5.22L10.75 13.82L11.40 13.82L14.34 4.47C14.42 4.47 14.49 4.45 14.56 4.45C14.63 4.45 14.69 4.44 14.73 4.44L14.83 4.44C15.01 4.42 15.09 4.34 15.09 4.19L15.09 3.92ZM32.87 4.44C33.05 4.42 33.15 4.34 33.15 4.19L33.15 3.92L31.98 3.92L31.25 3.92L30.07 3.92L30.07 4.19C30.07 4.34 30.17 4.42 30.35 4.44L30.48 4.44C30.55 4.44 30.66 4.45 30.80 4.45C30.94 4.45 31.08 4.47 31.25 4.47L31.25 8.53L25.05 8.53L25.05 4.47C25.21 4.47 25.37 4.45 25.51 4.45C25.65 4.45 25.75 4.44 25.82 4.44L25.96 4.44C26.14 4.42 26.22 4.34 26.22 4.19L26.22 3.92L25.05 3.92L24.33 3.92L23.14 3.92L23.14 4.19C23.14 4.34 23.24 4.42 23.42 4.44L23.56 4.44C23.63 4.44 23.73 4.45 23.87 4.45C24.01 4.45 24.16 4.47 24.33 4.47L24.33 13.26C24.16 13.26 24.01 13.27 23.87 13.27C23.73 13.27 23.63 13.29 23.56 13.29L23.42 13.29C23.24 13.30 23.14 13.38 23.14 13.54L23.14 13.82L24.33 13.82L25.05 13.82L26.22 13.82L26.22 13.54C26.22 13.38 26.14 13.30 25.96 13.29L25.82 13.29C25.75 13.29 25.65 13.27 25.51 13.27C25.37 13.27 25.21 13.26 25.05 13.26L25.05 9.07L31.25 9.07L31.25 13.26C31.08 13.26 30.94 13.27 30.80 13.27C30.66 13.27 30.55 13.29 30.48 13.29L30.35 13.29C30.17 13.30 30.07 13.38 30.07 13.54L30.07 13.82L31.25 13.82L31.98 13.82L33.15 13.82L33.15 13.54C33.15 13.38 33.05 13.30 32.87 13.29L32.75 13.29C32.68 13.29 32.56 13.27 32.42 13.27C32.28 13.27 32.14 13.26 31.98 13.26L31.98 4.47C32.14 4.47 32.28 4.45 32.42 4.45C32.56 4.45 32.68 4.44 32.75 4.44ZM42.69 3.92L41.50 3.92L41.50 4.19C41.50 4.34 41.59 4.42 41.78 4.44L41.92 4.44C41.99 4.44 42.08 4.45 42.22 4.45C42.36 4.45 42.52 4.47 42.69 4.47L42.69 13.26C42.52 13.26 42.36 13.27 42.22 13.27C42.08 13.27 41.99 13.29 41.92 13.29L41.78 13.29C41.59 13.30 41.51 13.38 41.51 13.54L41.51 13.82L42.69 13.82L48.62 13.82L48.62 13.22L48.62 11.76L48.27 11.76C48.08 11.76 47.99 11.89 47.98 12.11C47.98 12.14 47.96 12.19 47.96 12.29C47.96 12.39 47.96 12.53 47.95 12.74C47.94 12.95 47.92 13.09 47.92 13.22L43.40 13.22L43.40 9.09L47.35 9.09L47.35 8.51L43.40 8.51L43.40 4.51L47.92 4.51C47.95 5.12 47.98 5.50 47.98 5.63C47.99 5.85 48.08 5.96 48.27 5.96L48.62 5.96L48.62 4.51L48.62 3.92ZM65.20 13.29L65.10 13.29L64.92 13.29C64.83 13.29 64.75 13.27 64.67 13.27L61.70 9.53C61.61 9.42 61.50 9.32 61.39 9.25C61.82 9.21 62.22 9.11 62.57 8.96C62.92 8.81 63.20 8.61 63.45 8.37C63.69 8.13 63.88 7.85 64.01 7.55C64.13 7.24 64.20 6.89 64.20 6.51C64.20 5.66 63.92 5.03 63.36 4.58C62.80 4.14 61.95 3.92 60.80 3.92L58.39 3.92L57.22 3.92L57.22 4.19C57.22 4.34 57.30 4.42 57.48 4.44L57.62 4.44C57.69 4.44 57.79 4.45 57.93 4.45C58.07 4.45 58.23 4.47 58.39 4.47L58.39 13.26C58.23 13.26 58.07 13.27 57.93 13.27C57.79 13.27 57.69 13.29 57.62 13.29L57.48 13.29C57.30 13.30 57.20 13.38 57.20 13.54L57.20 13.82L58.39 13.82L59.11 13.82L60.28 13.82L60.28 13.54C60.28 13.38 60.19 13.30 60.00 13.29L59.86 13.29C59.79 13.29 59.70 13.27 59.56 13.27C59.42 13.27 59.28 13.26 59.11 13.26L59.11 9.34L60.28 9.34C60.48 9.34 60.62 9.35 60.70 9.39C60.79 9.44 60.87 9.52 60.96 9.62L64.13 13.64C64.19 13.71 64.23 13.75 64.29 13.78C64.34 13.80 64.41 13.82 64.48 13.82L64.55 13.82L65.10 13.82L65.46 13.82L65.46 13.54C65.46 13.38 65.38 13.30 65.20 13.29ZM60.70 8.81L59.11 8.81L59.11 4.48L60.80 4.48C61.68 4.48 62.36 4.66 62.82 5.00C63.28 5.33 63.50 5.87 63.50 6.57C63.50 6.92 63.45 7.21 63.32 7.49C63.20 7.77 63 7.99 62.76 8.19C62.52 8.39 62.23 8.55 61.88 8.65C61.53 8.75 61.14 8.81 60.70 8.81ZM74.86 3.92L73.67 3.92L73.67 4.19C73.67 4.34 73.77 4.42 73.95 4.44L74.09 4.44C74.16 4.44 74.26 4.45 74.40 4.45C74.54 4.45 74.69 4.47 74.86 4.47L74.86 13.26C74.69 13.26 74.54 13.27 74.40 13.27C74.26 13.27 74.16 13.29 74.09 13.29L73.95 13.29C73.77 13.30 73.68 13.38 73.68 13.54L73.68 13.82L74.86 13.82L80.79 13.82L80.79 13.22L80.79 11.76L80.44 11.76C80.25 11.76 80.16 11.89 80.15 12.11C80.15 12.14 80.14 12.19 80.14 12.29C80.14 12.39 80.14 12.53 80.12 12.74C80.11 12.95 80.09 13.09 80.09 13.22L75.57 13.22L75.57 9.09L79.52 9.09L79.52 8.51L75.57 8.51L75.57 4.51L80.09 4.51C80.12 5.12 80.15 5.50 80.15 5.63C80.16 5.85 80.25 5.96 80.44 5.96L80.79 5.96L80.79 4.51L80.79 3.92ZM109.48 4.44C109.66 4.42 109.76 4.34 109.76 4.19L109.76 3.92L108.58 3.92L107.86 3.92L106.68 3.92L106.68 4.19C106.68 4.34 106.78 4.42 106.96 4.44L107.09 4.44C107.16 4.44 107.27 4.45 107.41 4.45C107.55 4.45 107.69 4.47 107.86 4.47L107.86 8.53L101.65 8.53L101.65 4.47C101.82 4.47 101.98 4.45 102.12 4.45C102.26 4.45 102.35 4.44 102.42 4.44L102.56 4.44C102.75 4.42 102.83 4.34 102.83 4.19L102.83 3.92L101.65 3.92L100.94 3.92L99.75 3.92L99.75 4.19C99.75 4.34 99.85 4.42 100.03 4.44L100.17 4.44C100.24 4.44 100.34 4.45 100.48 4.45C100.62 4.45 100.77 4.47 100.94 4.47L100.94 13.26C100.77 13.26 100.62 13.27 100.48 13.27C100.34 13.27 100.24 13.29 100.17 13.29L100.03 13.29C99.85 13.30 99.75 13.38 99.75 13.54L99.75 13.82L100.94 13.82L101.65 13.82L102.83 13.82L102.83 13.54C102.83 13.38 102.75 13.30 102.56 13.29L102.42 13.29C102.35 13.29 102.26 13.27 102.12 13.27C101.98 13.27 101.82 13.26 101.65 13.26L101.65 9.07L107.86 9.07L107.86 13.26C107.69 13.26 107.55 13.27 107.41 13.27C107.27 13.27 107.16 13.29 107.09 13.29L106.96 13.29C106.78 13.30 106.68 13.38 106.68 13.54L106.68 13.82L107.86 13.82L108.58 13.82L109.76 13.82L109.76 13.54C109.76 13.38 109.66 13.30 109.48 13.29L109.35 13.29C109.28 13.29 109.17 13.27 109.03 13.27C108.89 13.27 108.75 13.26 108.58 13.26L108.58 4.47C108.75 4.47 108.89 4.45 109.03 4.45C109.17 4.45 109.28 4.44 109.35 4.44ZM119.29 3.92L118.10 3.92L118.10 4.19C118.10 4.34 118.20 4.42 118.38 4.44L118.52 4.44C118.59 4.44 118.69 4.45 118.83 4.45C118.97 4.45 119.13 4.47 119.29 4.47L119.29 13.26C119.13 13.26 118.97 13.27 118.83 13.27C118.69 13.27 118.59 13.29 118.52 13.29L118.38 13.29C118.20 13.30 118.12 13.38 118.12 13.54L118.12 13.82L119.29 13.82L125.23 13.82L125.23 13.22L125.23 11.76L124.88 11.76C124.68 11.76 124.60 11.89 124.59 12.11C124.59 12.14 124.57 12.19 124.57 12.29C124.57 12.39 124.57 12.53 124.56 12.74C124.54 12.95 124.53 13.09 124.53 13.22L120.01 13.22L120.01 9.09L123.96 9.09L123.96 8.51L120.01 8.51L120.01 4.51L124.53 4.51C124.56 5.12 124.59 5.50 124.59 5.63C124.60 5.85 124.68 5.96 124.88 5.96L125.23 5.96L125.23 4.51L125.23 3.92ZM143.11 13.22L142.65 13.17L138.87 3.91L138.15 3.91L134.36 13.17L133.91 13.22C133.73 13.23 133.64 13.33 133.64 13.50L133.64 13.82L134.09 13.82L134.39 13.82L134.64 13.82L134.74 13.82L136.05 13.82L136.05 13.50C136.05 13.31 135.94 13.23 135.73 13.22C135.72 13.22 135.69 13.20 135.65 13.20C135.60 13.20 135.55 13.19 135.45 13.19C135.35 13.19 135.23 13.19 135.09 13.17L136.07 10.75L136.14 10.57L140.87 10.57L140.94 10.75L141.92 13.17C141.78 13.19 141.67 13.19 141.57 13.19C141.47 13.19 141.40 13.20 141.36 13.20C141.32 13.20 141.29 13.22 141.27 13.22C141.06 13.23 140.95 13.31 140.95 13.50L140.95 13.82L142.27 13.82L142.37 13.82L142.63 13.82L142.91 13.82L143.37 13.82L143.37 13.50C143.37 13.33 143.29 13.23 143.11 13.22ZM138.31 5.22C138.33 5.14 138.38 5.04 138.40 4.94C138.43 4.84 138.47 4.75 138.50 4.63C138.53 4.75 138.57 4.84 138.60 4.94C138.63 5.04 138.67 5.12 138.70 5.21L140.66 10.04L136.36 10.04ZM157.98 11.97C157.78 11.97 157.70 12.08 157.68 12.31C157.68 12.32 157.68 12.38 157.67 12.43C157.65 12.49 157.65 12.59 157.64 12.71C157.63 12.84 157.61 13.01 157.60 13.20L153.51 13.20L153.51 4.47C153.68 4.47 153.82 4.45 153.96 4.45C154.10 4.45 154.21 4.44 154.28 4.44L154.41 4.44C154.59 4.42 154.69 4.34 154.69 4.19L154.69 3.92L153.51 3.92L152.80 3.92L151.61 3.92L151.61 4.19C151.61 4.34 151.70 4.42 151.89 4.44L152.03 4.44C152.10 4.44 152.19 4.45 152.33 4.45C152.47 4.45 152.63 4.47 152.80 4.47L152.80 13.26C152.63 13.26 152.47 13.27 152.33 13.27C152.19 13.27 152.10 13.29 152.03 13.29L151.89 13.29C151.70 13.30 151.61 13.38 151.61 13.54L151.61 13.82L152.80 13.82L158.07 13.82L158.20 13.82L158.33 13.82L158.33 13.55L158.33 12.99L158.33 11.97L158.05 11.97ZM173.12 3.92L172.93 3.92L165.63 3.92L165.42 3.92L165.33 3.92L165.33 5.96L165.68 5.96C165.87 5.96 165.96 5.85 165.97 5.63C165.97 5.53 166.00 5.17 166.03 4.52L168.92 4.52L168.92 13.26C168.76 13.26 168.62 13.27 168.48 13.27C168.34 13.27 168.22 13.29 168.15 13.29L168.03 13.29C167.85 13.30 167.75 13.38 167.75 13.54L167.75 13.82L168.92 13.82L169.64 13.82L170.83 13.82L170.83 13.54C170.83 13.38 170.73 13.30 170.55 13.29L170.41 13.29C170.34 13.29 170.24 13.27 170.10 13.27C169.96 13.27 169.81 13.26 169.64 13.26L169.64 4.52L172.52 4.52C172.56 5.24 172.58 5.60 172.58 5.63C172.59 5.85 172.69 5.96 172.89 5.96L173.22 5.96L173.22 3.92ZM191.06 4.44C191.24 4.42 191.34 4.34 191.34 4.19L191.34 3.92L190.16 3.92L189.43 3.92L188.26 3.92L188.26 4.19C188.26 4.34 188.36 4.42 188.54 4.44L188.66 4.44C188.73 4.44 188.85 4.45 188.99 4.45C189.13 4.45 189.27 4.47 189.43 4.47L189.43 8.53L183.23 8.53L183.23 4.47C183.40 4.47 183.55 4.45 183.69 4.45C183.83 4.45 183.93 4.44 184.00 4.44L184.14 4.44C184.32 4.42 184.41 4.34 184.41 4.19L184.41 3.92L183.23 3.92L182.52 3.92L181.33 3.92L181.33 4.19C181.33 4.34 181.43 4.42 181.61 4.44L181.75 4.44C181.82 4.44 181.92 4.45 182.06 4.45C182.20 4.45 182.35 4.47 182.52 4.47L182.52 13.26C182.35 13.26 182.20 13.27 182.06 13.27C181.92 13.27 181.82 13.29 181.75 13.29L181.61 13.29C181.43 13.30 181.33 13.38 181.33 13.54L181.33 13.82L182.52 13.82L183.23 13.82L184.41 13.82L184.41 13.54C184.41 13.38 184.32 13.30 184.14 13.29L184.00 13.29C183.93 13.29 183.83 13.27 183.69 13.27C183.55 13.27 183.40 13.26 183.23 13.26L183.23 9.07L189.43 9.07L189.43 13.26C189.27 13.26 189.13 13.27 188.99 13.27C188.85 13.27 188.73 13.29 188.66 13.29L188.54 13.29C188.36 13.30 188.26 13.38 188.26 13.54L188.26 13.82L189.43 13.82L190.16 13.82L191.34 13.82L191.34 13.54C191.34 13.38 191.24 13.30 191.06 13.29L190.93 13.29C190.86 13.29 190.75 13.27 190.61 13.27C190.47 13.27 190.33 13.26 190.16 13.26L190.16 4.47C190.33 4.47 190.47 4.45 190.61 4.45C190.75 4.45 190.86 4.44 190.93 4.44ZM221.93 4.44C222.11 4.42 222.21 4.34 222.21 4.19L222.21 3.92L221.03 3.92L220.53 3.92C220.46 3.92 220.42 3.92 220.37 3.93C220.33 3.95 220.30 3.99 220.26 4.05L216.37 10.92C216.33 10.99 216.30 11.06 216.27 11.13C216.24 11.20 216.22 11.28 216.19 11.35C216.13 11.20 216.08 11.06 216.01 10.93L212.00 4.05C211.96 3.99 211.93 3.95 211.89 3.93C211.85 3.92 211.81 3.92 211.74 3.92L211.25 3.92L210.06 3.92L210.06 4.19C210.06 4.34 210.15 4.42 210.34 4.44L210.48 4.44C210.55 4.44 210.64 4.45 210.78 4.45C210.92 4.45 211.08 4.47 211.25 4.47L211.25 13.26C211.08 13.26 210.92 13.27 210.78 13.27C210.64 13.27 210.55 13.29 210.48 13.29L210.34 13.29C210.15 13.30 210.06 13.38 210.06 13.54L210.06 13.82L211.25 13.82L211.86 13.82L213.08 13.82L213.08 13.54C213.08 13.38 212.98 13.30 212.80 13.29L212.66 13.29C212.59 13.29 212.48 13.27 212.34 13.27C212.20 13.27 212.03 13.26 211.86 13.26L211.86 5.38C211.86 5.25 211.86 5.12 211.85 4.98L215.85 11.91C215.92 12.04 216.02 12.10 216.13 12.10L216.24 12.10C216.37 12.10 216.45 12.04 216.52 11.91L220.42 4.98C220.40 5.12 220.40 5.25 220.40 5.38L220.40 13.26C220.23 13.26 220.07 13.27 219.93 13.27C219.79 13.27 219.67 13.29 219.60 13.29L219.46 13.29C219.28 13.30 219.18 13.38 219.18 13.54L219.18 13.82L220.40 13.82L221.03 13.82L222.21 13.82L222.21 13.54C222.21 13.38 222.11 13.30 221.93 13.29L221.80 13.29C221.73 13.29 221.62 13.27 221.48 13.27C221.34 13.27 221.20 13.26 221.03 13.26L221.03 4.47C221.20 4.47 221.34 4.45 221.48 4.45C221.62 4.45 221.73 4.44 221.80 4.44ZM231.74 3.92L230.55 3.92L230.55 4.19C230.55 4.34 230.65 4.42 230.83 4.44L230.97 4.44C231.04 4.44 231.14 4.45 231.28 4.45C231.42 4.45 231.57 4.47 231.74 4.47L231.74 13.26C231.57 13.26 231.42 13.27 231.28 13.27C231.14 13.27 231.04 13.29 230.97 13.29L230.83 13.29C230.65 13.30 230.57 13.38 230.57 13.54L230.57 13.82L231.74 13.82L237.68 13.82L237.68 13.22L237.68 11.76L237.33 11.76C237.13 11.76 237.05 11.89 237.03 12.11C237.03 12.14 237.02 12.19 237.02 12.29C237.02 12.39 237.02 12.53 237.01 12.74C236.99 12.95 236.98 13.09 236.98 13.22L232.46 13.22L232.46 9.09L236.40 9.09L236.40 8.51L232.46 8.51L232.46 4.51L236.98 4.51C237.01 5.12 237.03 5.50 237.03 5.63C237.05 5.85 237.13 5.96 237.33 5.96L237.68 5.96L237.68 4.51L237.68 3.92ZM247.45 3.92L246.26 3.92L246.26 4.19C246.26 4.34 246.36 4.42 246.54 4.44L246.68 4.44C246.75 4.44 246.85 4.45 246.99 4.45C247.13 4.45 247.28 4.47 247.45 4.47L247.45 13.26C247.28 13.26 247.13 13.27 246.99 13.27C246.85 13.27 246.75 13.29 246.68 13.29L246.54 13.29C246.36 13.30 246.27 13.38 246.27 13.54L246.27 13.82L247.45 13.82L253.39 13.82L253.39 13.22L253.39 11.76L253.04 11.76C252.84 11.76 252.76 11.89 252.74 12.11C252.74 12.14 252.73 12.19 252.73 12.29C252.73 12.39 252.73 12.53 252.71 12.74C252.70 12.95 252.69 13.09 252.69 13.22L248.16 13.22L248.16 9.09L252.11 9.09L252.11 8.51L248.16 8.51L248.16 4.51L252.69 4.51C252.71 5.12 252.74 5.50 252.74 5.63C252.76 5.85 252.84 5.96 253.04 5.96L253.39 5.96L253.39 4.51L253.39 3.92ZM269.49 3.92L269.29 3.92L262.00 3.92L261.79 3.92L261.69 3.92L261.69 5.96L262.04 5.96C262.23 5.96 262.32 5.85 262.33 5.63C262.33 5.53 262.36 5.17 262.39 4.52L265.29 4.52L265.29 13.26C265.12 13.26 264.98 13.27 264.84 13.27C264.70 13.27 264.59 13.29 264.52 13.29L264.39 13.29C264.21 13.30 264.11 13.38 264.11 13.54L264.11 13.82L265.29 13.82L266.00 13.82L267.19 13.82L267.19 13.54C267.19 13.38 267.09 13.30 266.91 13.29L266.77 13.29C266.70 13.29 266.60 13.27 266.46 13.27C266.32 13.27 266.17 13.26 266.00 13.26L266.00 4.52L268.88 4.52C268.93 5.24 268.94 5.60 268.94 5.63C268.95 5.85 269.05 5.96 269.25 5.96L269.58 5.96L269.58 3.92ZM283.42 9.91C283.28 9.65 283.08 9.39 282.84 9.21C282.60 9.03 282.35 8.88 282.06 8.75C281.76 8.62 281.44 8.51 281.13 8.41C280.83 8.32 280.52 8.20 280.22 8.11C279.93 7.99 279.66 7.87 279.43 7.71C279.19 7.56 279.01 7.38 278.87 7.15C278.73 6.93 278.64 6.65 278.64 6.31C278.64 6.06 278.70 5.82 278.80 5.59C278.89 5.35 279.03 5.15 279.22 4.97C279.40 4.79 279.62 4.65 279.90 4.55C280.18 4.45 280.49 4.40 280.85 4.40C281.53 4.40 282.14 4.51 282.70 4.75C282.74 5.54 282.77 5.99 282.77 6.06C282.79 6.29 282.87 6.41 283.07 6.41L283.40 6.41L283.40 4.38C282.52 4.00 281.68 3.81 280.85 3.81C280.39 3.81 279.99 3.88 279.62 4.02C279.26 4.16 278.96 4.34 278.73 4.58C278.49 4.82 278.29 5.08 278.17 5.39C278.04 5.70 277.98 6.02 277.98 6.36C277.98 6.78 278.05 7.14 278.19 7.42C278.33 7.70 278.53 7.92 278.77 8.12C279.01 8.32 279.26 8.46 279.55 8.58C279.85 8.71 280.17 8.82 280.48 8.92C280.78 9.02 281.08 9.11 281.39 9.21C281.68 9.31 281.95 9.45 282.18 9.60C282.42 9.76 282.60 9.94 282.74 10.16C282.88 10.39 282.95 10.68 282.95 11.03C282.95 11.35 282.90 11.66 282.79 11.94C282.67 12.22 282.52 12.46 282.31 12.67C282.10 12.88 281.83 13.05 281.53 13.16C281.22 13.29 280.87 13.33 280.48 13.33C279.69 13.33 279.03 13.20 278.50 12.95C278.49 12.75 278.49 12.54 278.47 12.32C278.46 12.10 278.46 11.91 278.45 11.76C278.43 11.61 278.43 11.52 278.43 11.51C278.42 11.28 278.32 11.17 278.12 11.17L277.79 11.17L277.79 13.02L277.79 13.20L277.79 13.38C278.64 13.75 279.52 13.93 280.45 13.93C280.95 13.93 281.40 13.85 281.79 13.69C282.18 13.54 282.52 13.31 282.79 13.05C283.05 12.78 283.28 12.46 283.42 12.10C283.56 11.73 283.63 11.34 283.63 10.92C283.63 10.51 283.56 10.18 283.42 9.91ZM305.07 4.44C305.26 4.42 305.34 4.34 305.34 4.19L305.34 3.91L304.16 3.91L303.45 3.91L302.26 3.91L302.26 4.19C302.26 4.34 302.36 4.42 302.54 4.44L302.68 4.44C302.75 4.44 302.85 4.45 302.99 4.45C303.13 4.45 303.28 4.47 303.45 4.47L303.45 13.26C303.28 13.26 303.13 13.27 302.99 13.27C302.85 13.27 302.75 13.29 302.68 13.29L302.54 13.29C302.36 13.30 302.26 13.38 302.26 13.54L302.26 13.82L303.45 13.82L304.16 13.82L305.34 13.82L305.34 13.54C305.34 13.38 305.26 13.30 305.07 13.29L304.93 13.29C304.86 13.29 304.77 13.27 304.63 13.27C304.49 13.27 304.33 13.26 304.16 13.26L304.16 4.47C304.33 4.47 304.49 4.45 304.63 4.45C304.77 4.45 304.86 4.44 304.93 4.44ZM322.52 3.92L321.89 3.92L320.67 3.92L320.67 4.19C320.67 4.34 320.77 4.42 320.95 4.44L321.09 4.44C321.16 4.44 321.27 4.45 321.41 4.45C321.55 4.45 321.72 4.47 321.89 4.47L321.89 12.22C321.89 12.35 321.89 12.49 321.90 12.63L315.49 4.05C315.45 3.99 315.42 3.95 315.38 3.93C315.34 3.92 315.29 3.91 315.22 3.91L314.87 3.91L313.68 3.91L313.68 4.19C313.68 4.34 313.78 4.42 313.96 4.44L314.10 4.44C314.17 4.44 314.27 4.45 314.41 4.45C314.55 4.45 314.71 4.47 314.87 4.47L314.87 13.26C314.71 13.26 314.55 13.27 314.41 13.27C314.27 13.27 314.17 13.29 314.10 13.29L313.96 13.29C313.78 13.30 313.68 13.38 313.68 13.54L313.68 13.82L314.87 13.82L315.49 13.82L316.71 13.82L316.71 13.54C316.71 13.38 316.61 13.30 316.43 13.29L316.29 13.29C316.22 13.29 316.09 13.27 315.95 13.27C315.81 13.27 315.66 13.26 315.49 13.26L315.49 5.49C315.49 5.36 315.49 5.22 315.48 5.08L321.92 13.68C321.99 13.78 322.06 13.82 322.17 13.82L322.52 13.82L322.52 4.47C322.69 4.47 322.83 4.45 322.97 4.45C323.11 4.45 323.22 4.44 323.29 4.44L323.41 4.44C323.60 4.42 323.69 4.34 323.69 4.19L323.69 3.92ZM340.56 3.92L339.93 3.92L338.72 3.92L338.72 4.19C338.72 4.34 338.81 4.42 339.00 4.44L339.14 4.44C339.21 4.44 339.32 4.45 339.46 4.45C339.60 4.45 339.77 4.47 339.93 4.47L339.93 12.22C339.93 12.35 339.93 12.49 339.95 12.63L333.54 4.05C333.49 3.99 333.47 3.95 333.42 3.93C333.38 3.92 333.34 3.91 333.27 3.91L332.92 3.91L331.73 3.91L331.73 4.19C331.73 4.34 331.83 4.42 332.01 4.44L332.15 4.44C332.22 4.44 332.32 4.45 332.46 4.45C332.60 4.45 332.75 4.47 332.92 4.47L332.92 13.26C332.75 13.26 332.60 13.27 332.46 13.27C332.32 13.27 332.22 13.29 332.15 13.29L332.01 13.29C331.83 13.30 331.73 13.38 331.73 13.54L331.73 13.82L332.92 13.82L333.54 13.82L334.75 13.82L334.75 13.54C334.75 13.38 334.66 13.30 334.47 13.29L334.33 13.29C334.26 13.29 334.14 13.27 334.00 13.27C333.86 13.27 333.70 13.26 333.54 13.26L333.54 5.49C333.54 5.36 333.54 5.22 333.52 5.08L339.96 13.68C340.03 13.78 340.10 13.82 340.21 13.82L340.56 13.82L340.56 4.47C340.73 4.47 340.87 4.45 341.01 4.45C341.15 4.45 341.26 4.44 341.33 4.44L341.46 4.44C341.64 4.42 341.74 4.34 341.74 4.19L341.74 3.92ZM359.04 8.86C359.04 8.11 358.92 7.41 358.69 6.79C358.47 6.17 358.15 5.64 357.73 5.19C357.31 4.75 356.82 4.40 356.24 4.16C355.67 3.92 355.01 3.79 354.31 3.79C353.61 3.79 352.98 3.92 352.41 4.16C351.83 4.40 351.33 4.75 350.91 5.19C350.49 5.64 350.17 6.17 349.94 6.79C349.72 7.41 349.59 8.11 349.59 8.86C349.59 9.63 349.72 10.33 349.94 10.95C350.17 11.56 350.49 12.10 350.91 12.54C351.33 12.99 351.83 13.33 352.41 13.57C352.98 13.80 353.61 13.93 354.31 13.93C355.01 13.93 355.67 13.80 356.24 13.57C356.82 13.33 357.31 12.99 357.73 12.54C358.15 12.10 358.47 11.56 358.69 10.95C358.92 10.33 359.04 9.63 359.04 8.86ZM358.29 8.86C358.29 9.56 358.20 10.18 358.01 10.72C357.81 11.27 357.55 11.75 357.20 12.12C356.85 12.50 356.43 12.81 355.94 13.01C355.45 13.20 354.91 13.30 354.31 13.30C353.72 13.30 353.19 13.20 352.70 13.01C352.21 12.81 351.79 12.50 351.44 12.12C351.09 11.75 350.81 11.27 350.62 10.72C350.42 10.18 350.34 9.56 350.34 8.86C350.34 8.18 350.42 7.55 350.62 7.00C350.81 6.45 351.09 5.98 351.44 5.60C351.79 5.22 352.21 4.91 352.70 4.72C353.19 4.52 353.72 4.41 354.31 4.41C354.91 4.41 355.45 4.52 355.94 4.72C356.43 4.91 356.85 5.22 357.20 5.60C357.55 5.98 357.81 6.45 358.01 7.00C358.20 7.55 358.29 8.18 358.29 8.86ZM375.80 3.92L375.24 3.92L375.21 3.92L373.74 3.92L373.74 4.19C373.74 4.34 373.83 4.42 374.01 4.44L374.14 4.44C374.19 4.44 374.28 4.45 374.40 4.45C374.53 4.45 374.67 4.47 374.82 4.47L371.62 12.32C371.53 12.53 371.46 12.75 371.41 13.01C371.35 12.77 371.28 12.53 371.20 12.32L367.96 4.47C368.12 4.47 368.27 4.45 368.40 4.45C368.52 4.45 368.61 4.44 368.66 4.44L368.77 4.44C368.96 4.42 369.05 4.34 369.05 4.19L369.05 3.92L367.56 3.92L367.00 3.92L366.39 3.92L366.39 4.19C366.39 4.34 366.49 4.42 366.67 4.44L366.77 4.44C366.81 4.44 366.88 4.45 366.95 4.45C367.02 4.45 367.12 4.47 367.22 4.47L371.08 13.82L371.71 13.82L375.58 4.47C375.68 4.47 375.77 4.45 375.84 4.45C375.91 4.45 375.98 4.44 376.03 4.44L376.11 4.44C376.29 4.42 376.39 4.34 376.39 4.19L376.39 3.92ZM391.22 13.22L390.75 13.17L386.97 3.91L386.26 3.91L382.47 13.17L382.02 13.22C381.84 13.23 381.75 13.33 381.75 13.50L381.75 13.82L382.20 13.82L382.49 13.82L382.75 13.82L382.84 13.82L384.16 13.82L384.16 13.50C384.16 13.31 384.05 13.23 383.84 13.22C383.82 13.22 383.80 13.20 383.75 13.20C383.71 13.20 383.66 13.19 383.56 13.19C383.46 13.19 383.33 13.19 383.19 13.17L384.17 10.75L384.24 10.57L388.98 10.57L389.05 10.75L390.03 13.17C389.89 13.19 389.77 13.19 389.68 13.19C389.58 13.19 389.51 13.20 389.47 13.20C389.42 13.20 389.40 13.22 389.38 13.22C389.17 13.23 389.06 13.31 389.06 13.50L389.06 13.82L390.38 13.82L390.47 13.82L390.74 13.82L391.02 13.82L391.48 13.82L391.48 13.50C391.48 13.33 391.40 13.23 391.22 13.22ZM386.41 5.22C386.44 5.14 386.48 5.04 386.51 4.94C386.54 4.84 386.58 4.75 386.61 4.63C386.64 4.75 386.68 4.84 386.71 4.94C386.74 5.04 386.78 5.12 386.81 5.21L388.77 10.04L384.47 10.04ZM406.14 3.92L405.94 3.92L398.65 3.92L398.44 3.92L398.34 3.92L398.34 5.96L398.69 5.96C398.89 5.96 398.97 5.85 398.99 5.63C398.99 5.53 399.01 5.17 399.04 4.52L401.94 4.52L401.94 13.26C401.77 13.26 401.63 13.27 401.49 13.27C401.35 13.27 401.24 13.29 401.17 13.29L401.04 13.29C400.86 13.30 400.76 13.38 400.76 13.54L400.76 13.82L401.94 13.82L402.65 13.82L403.84 13.82L403.84 13.54C403.84 13.38 403.75 13.30 403.56 13.29L403.42 13.29C403.35 13.29 403.26 13.27 403.12 13.27C402.98 13.27 402.82 13.26 402.65 13.26L402.65 4.52L405.54 4.52C405.58 5.24 405.59 5.60 405.59 5.63C405.61 5.85 405.71 5.96 405.90 5.96L406.24 5.96L406.24 3.92ZM417.16 4.44C417.34 4.42 417.42 4.34 417.42 4.19L417.42 3.91L416.25 3.91L415.53 3.91L414.34 3.91L414.34 4.19C414.34 4.34 414.44 4.42 414.62 4.44L414.76 4.44C414.83 4.44 414.93 4.45 415.07 4.45C415.21 4.45 415.37 4.47 415.53 4.47L415.53 13.26C415.37 13.26 415.21 13.27 415.07 13.27C414.93 13.27 414.83 13.29 414.76 13.29L414.62 13.29C414.44 13.30 414.34 13.38 414.34 13.54L414.34 13.82L415.53 13.82L416.25 13.82L417.42 13.82L417.42 13.54C417.42 13.38 417.34 13.30 417.16 13.29L417.02 13.29C416.95 13.29 416.85 13.27 416.71 13.27C416.57 13.27 416.42 13.26 416.25 13.26L416.25 4.47C416.42 4.47 416.57 4.45 416.71 4.45C416.85 4.45 416.95 4.44 417.02 4.44ZM435.04 8.86C435.04 8.11 434.91 7.41 434.69 6.79C434.46 6.17 434.14 5.64 433.72 5.19C433.30 4.75 432.81 4.40 432.24 4.16C431.66 3.92 431.00 3.79 430.30 3.79C429.60 3.79 428.97 3.92 428.40 4.16C427.83 4.40 427.32 4.75 426.90 5.19C426.48 5.64 426.16 6.17 425.94 6.79C425.71 7.41 425.59 8.11 425.59 8.86C425.59 9.63 425.71 10.33 425.94 10.95C426.16 11.56 426.48 12.10 426.90 12.54C427.32 12.99 427.83 13.33 428.40 13.57C428.97 13.80 429.60 13.93 430.30 13.93C431.00 13.93 431.66 13.80 432.24 13.57C432.81 13.33 433.30 12.99 433.72 12.54C434.14 12.10 434.46 11.56 434.69 10.95C434.91 10.33 435.04 9.63 435.04 8.86ZM434.28 8.86C434.28 9.56 434.20 10.18 434 10.72C433.80 11.27 433.54 11.75 433.19 12.12C432.84 12.50 432.42 12.81 431.93 13.01C431.44 13.20 430.91 13.30 430.30 13.30C429.72 13.30 429.18 13.20 428.69 13.01C428.20 12.81 427.78 12.50 427.43 12.12C427.08 11.75 426.80 11.27 426.61 10.72C426.41 10.18 426.33 9.56 426.33 8.86C426.33 8.18 426.41 7.55 426.61 7.00C426.80 6.45 427.08 5.98 427.43 5.60C427.78 5.22 428.20 4.91 428.69 4.72C429.18 4.52 429.72 4.41 430.30 4.41C430.91 4.41 431.44 4.52 431.93 4.72C432.42 4.91 432.84 5.22 433.19 5.60C433.54 5.98 433.80 6.45 434 7.00C434.20 7.55 434.28 8.18 434.28 8.86ZM451.86 3.92L451.23 3.92L450.02 3.92L450.02 4.19C450.02 4.34 450.11 4.42 450.30 4.44L450.44 4.44C450.51 4.44 450.62 4.45 450.76 4.45C450.90 4.45 451.07 4.47 451.23 4.47L451.23 12.22C451.23 12.35 451.23 12.49 451.25 12.63L444.84 4.05C444.79 3.99 444.77 3.95 444.72 3.93C444.68 3.92 444.64 3.91 444.57 3.91L444.22 3.91L443.03 3.91L443.03 4.19C443.03 4.34 443.13 4.42 443.31 4.44L443.45 4.44C443.52 4.44 443.62 4.45 443.76 4.45C443.90 4.45 444.05 4.47 444.22 4.47L444.22 13.26C444.05 13.26 443.90 13.27 443.76 13.27C443.62 13.27 443.52 13.29 443.45 13.29L443.31 13.29C443.13 13.30 443.03 13.38 443.03 13.54L443.03 13.82L444.22 13.82L444.84 13.82L446.05 13.82L446.05 13.54C446.05 13.38 445.96 13.30 445.77 13.29L445.63 13.29C445.56 13.29 445.44 13.27 445.30 13.27C445.16 13.27 445.00 13.26 444.84 13.26L444.84 5.49C444.84 5.36 444.84 5.22 444.82 5.08L451.26 13.68C451.33 13.78 451.40 13.82 451.51 13.82L451.86 13.82L451.86 4.47C452.03 4.47 452.17 4.45 452.31 4.45C452.45 4.45 452.56 4.44 452.63 4.44L452.76 4.44C452.94 4.42 453.04 4.34 453.04 4.19L453.04 3.92Z"></path></g></svg>