<svg width="27" height="20" viewBox="0 0 27 20" fill="none" xmlns="http://www.w3.org/2000/svg">
<path fill-rule="evenodd" clip-rule="evenodd" d="M18.3517 5.60483C18.3517 8.34613 16.1663 10.5442 13.4409 10.5442C10.7154 10.5442 8.53002 8.34613 8.53002 5.60483C8.53002 2.86248 10.7154 0.666504 13.4409 0.666504C16.1663 0.666504 18.3517 2.86248 18.3517 5.60483ZM13.4409 19.3332C9.43781 19.3332 6.01976 18.6985 6.01976 16.16C6.01976 13.6205 9.41588 12.9627 13.4409 12.9627C17.4439 12.9627 20.862 13.5974 20.862 16.1369C20.862 18.6754 17.4658 19.3332 13.4409 19.3332ZM20.4503 5.69393C20.4503 7.09137 20.0335 8.3932 19.3022 9.47543C19.227 9.5868 19.2939 9.73705 19.4265 9.76017C19.6093 9.79169 19.7984 9.80955 19.9906 9.81481C21.9075 9.86524 23.6281 8.62436 24.1034 6.7562C24.8074 3.98128 22.7401 1.49005 20.1076 1.49005C19.8214 1.49005 19.5477 1.52052 19.2813 1.57516C19.2448 1.58356 19.2061 1.60037 19.1852 1.63295C19.1601 1.67287 19.1789 1.72646 19.204 1.76113C19.9948 2.87593 20.4503 4.23555 20.4503 5.69393ZM23.6249 11.7645C24.913 12.0177 25.7602 12.5347 26.1112 13.2859C26.4078 13.9027 26.4078 14.6182 26.1112 15.2339C25.5742 16.3992 23.8432 16.7732 23.1705 16.8699C23.0316 16.8909 22.9198 16.7701 22.9344 16.6303C23.2781 13.4015 20.5443 11.8706 19.8371 11.5186C19.8068 11.5029 19.8005 11.4787 19.8036 11.464C19.8057 11.4535 19.8183 11.4367 19.8412 11.4335C21.3716 11.4052 23.0169 11.6153 23.6249 11.7645ZM7.01029 9.8147C7.2025 9.80945 7.39053 9.79264 7.57439 9.76007C7.70706 9.73695 7.77392 9.5867 7.6987 9.47532C6.96746 8.3931 6.55065 7.09127 6.55065 5.69383C6.55065 4.23544 7.00611 2.87583 7.7969 1.76103C7.82197 1.72635 7.83973 1.67277 7.8157 1.63284C7.79481 1.60132 7.75511 1.58346 7.71959 1.57505C7.45217 1.52041 7.17847 1.48994 6.89224 1.48994C4.25976 1.48994 2.19242 3.98117 2.89755 6.75609C3.37286 8.62425 5.09338 9.86514 7.01029 9.8147ZM7.19675 11.4634C7.19989 11.4791 7.19362 11.5022 7.16437 11.5191C6.45611 11.871 3.72229 13.4019 4.06598 16.6297C4.0806 16.7705 3.96987 16.8903 3.83094 16.8703C3.15819 16.7736 1.42723 16.3996 0.890283 15.2344C0.592562 14.6176 0.592562 13.9031 0.890283 13.2863C1.24128 12.5351 2.08744 12.0181 3.37547 11.7639C3.9845 11.6157 5.62875 11.4056 7.16019 11.4339C7.18317 11.4371 7.19466 11.4539 7.19675 11.4634Z" fill="url(#paint0_linear_1613_9557)"/>
<defs>
<linearGradient id="paint0_linear_1613_9557" x1="26.3337" y1="19.3332" x2="-2.23432" y2="7.94401" gradientUnits="userSpaceOnUse">
<stop stop-color="#246BFD"/>
<stop offset="1" stop-color="#5089FF"/>
</linearGradient>
</defs>
</svg>
