<svg data-v-423bf9ae="" xmlns="http://www.w3.org/2000/svg" viewBox="0 0 270.5836430764641 60" class="font"><!----><!----><!----><g data-v-423bf9ae="" id="91c79303-d2fd-4a4c-b837-816e85e39eaa" fill="white" transform="matrix(5.836575485636349,0,0,5.836575485636349,-0.5836608566980601,-14.766535573255624)"><path d="M9.24 3.04L5.70 12.67L3.66 12.67L0.10 3.04L2.20 3.04L4.18 9.23L4.18 9.23Q4.37 9.83 4.69 11.05L4.69 11.05L4.83 10.46L5.18 9.23L7.16 3.04L9.24 3.04ZM12.24 3.94L10.32 3.94L10.32 2.53L12.24 2.53L12.24 3.94ZM12.24 12.67L10.32 12.67L10.32 5.28L12.24 5.28L12.24 12.67ZM16.10 12.80L16.10 12.80L16.10 12.80Q15.25 12.80 14.79 12.34L14.79 12.34L14.79 12.34Q14.33 11.87 14.33 10.94L14.33 10.94L14.33 6.58L13.40 6.58L13.40 5.28L14.43 5.28L15.03 3.54L16.24 3.54L16.24 5.28L17.64 5.28L17.64 6.58L16.24 6.58L16.24 10.42L16.24 10.42Q16.24 10.96 16.44 11.21L16.44 11.21L16.44 11.21Q16.65 11.47 17.08 11.47L17.08 11.47L17.08 11.47Q17.30 11.47 17.72 11.38L17.72 11.38L17.72 12.56L17.72 12.56Q17.01 12.80 16.10 12.80ZM20.58 12.81L20.58 12.81L20.58 12.81Q19.50 12.81 18.90 12.23L18.90 12.23L18.90 12.23Q18.30 11.64 18.30 10.58L18.30 10.58L18.30 10.58Q18.30 9.43 19.05 8.83L19.05 8.83L19.05 8.83Q19.80 8.23 21.22 8.22L21.22 8.22L22.81 8.19L22.81 7.81L22.81 7.81Q22.81 7.09 22.56 6.74L22.56 6.74L22.56 6.74Q22.31 6.38 21.73 6.38L21.73 6.38L21.73 6.38Q21.20 6.38 20.95 6.63L20.95 6.63L20.95 6.63Q20.70 6.87 20.64 7.43L20.64 7.43L18.63 7.33L18.63 7.33Q18.82 6.25 19.62 5.70L19.62 5.70L19.62 5.70Q20.43 5.14 21.81 5.14L21.81 5.14L21.81 5.14Q23.21 5.14 23.97 5.83L23.97 5.83L23.97 5.83Q24.73 6.52 24.73 7.79L24.73 7.79L24.73 10.49L24.73 10.49Q24.73 11.11 24.87 11.34L24.87 11.34L24.87 11.34Q25.01 11.58 25.34 11.58L25.34 11.58L25.34 11.58Q25.56 11.58 25.76 11.54L25.76 11.54L25.76 12.58L25.76 12.58Q25.59 12.62 25.46 12.65L25.46 12.65L25.46 12.65Q25.32 12.69 25.18 12.71L25.18 12.71L25.18 12.71Q25.05 12.73 24.89 12.74L24.89 12.74L24.89 12.74Q24.74 12.76 24.53 12.76L24.53 12.76L24.53 12.76Q23.81 12.76 23.46 12.40L23.46 12.40L23.46 12.40Q23.12 12.04 23.05 11.35L23.05 11.35L23.01 11.35L23.01 11.35Q22.20 12.81 20.58 12.81ZM22.81 9.63L22.81 9.25L21.83 9.26L21.83 9.26Q21.16 9.29 20.88 9.41L20.88 9.41L20.88 9.41Q20.60 9.53 20.45 9.78L20.45 9.78L20.45 9.78Q20.30 10.02 20.30 10.43L20.30 10.43L20.30 10.43Q20.30 10.96 20.55 11.21L20.55 11.21L20.55 11.21Q20.79 11.47 21.19 11.47L21.19 11.47L21.19 11.47Q21.64 11.47 22.02 11.22L22.02 11.22L22.02 11.22Q22.39 10.98 22.60 10.54L22.60 10.54L22.60 10.54Q22.81 10.11 22.81 9.63L22.81 9.63ZM28.57 12.67L26.65 12.67L26.65 2.53L28.57 2.53L28.57 12.67ZM43.20 12.67L41.20 12.67L40.35 10.21L36.67 10.21L35.82 12.67L33.80 12.67L37.32 3.04L39.70 3.04L43.20 12.67ZM38.65 5.00L38.51 4.53L38.47 4.68L38.47 4.68Q38.40 4.92 38.30 5.24L38.30 5.24L38.30 5.24Q38.21 5.55 37.13 8.70L37.13 8.70L39.89 8.70L38.94 5.93L38.65 5.00ZM46.46 3.94L44.54 3.94L44.54 2.53L46.46 2.53L46.46 3.94ZM46.46 12.67L44.54 12.67L44.54 5.28L46.46 5.28L46.46 12.67Z"></path></g><!----><!----></svg>