<svg data-v-423bf9ae="" xmlns="http://www.w3.org/2000/svg" viewBox="0 0 143.38557781305033 60" class="font"><!----><!----><!----><g data-v-423bf9ae="" id="fc56d3d9-8ad2-4ed8-804c-a41ac74fc258" fill="white" transform="matrix(6.269592676418792,0,0,6.269592676418792,2.570532997131906,-17.053291543977863)"><path d="M2.51 4.49L4.90 10.14L4.90 10.14Q5.25 9.32 5.48 8.81L5.48 8.81L5.48 8.81Q5.71 8.29 5.86 7.94L5.86 7.94L5.86 7.94Q6.01 7.59 6.10 7.35L6.10 7.35L6.10 7.35Q6.20 7.11 6.30 6.88L6.30 6.88L6.30 6.88Q6.40 6.65 6.51 6.37L6.51 6.37L6.51 6.37Q6.62 6.09 6.81 5.64L6.81 5.64L6.81 5.64Q7 5.19 7.28 4.53L7.28 4.53L7.28 4.53Q7.56 3.86 7.98 2.86L7.98 2.86L8.65 2.86L4.63 12.24L4.38 12.24L1.13 4.49L1.13 4.49Q0.97 4.10 0.82 3.83L0.82 3.83L0.82 3.83Q0.67 3.56 0.49 3.39L0.49 3.39L0.49 3.39Q0.31 3.22 0.10 3.14L0.10 3.14L0.10 3.14Q-0.11 3.05-0.41 3.02L-0.41 3.02L-0.41 2.74L-0.41 2.74Q-0.35 2.74-0.19 2.73L-0.19 2.73L-0.19 2.73Q-0.03 2.72 0.07 2.72L0.07 2.72L0.07 2.72Q0.32 2.72 0.64 2.77L0.64 2.77L0.64 2.77Q0.97 2.83 1.29 3.01L1.29 3.01L1.29 3.01Q1.62 3.19 1.94 3.54L1.94 3.54L1.94 3.54Q2.25 3.89 2.51 4.49L2.51 4.49ZM9.55 10.77L9.55 10.77L9.55 10.77Q9.87 10.77 10.09 10.99L10.09 10.99L10.09 10.99Q10.30 11.21 10.30 11.52L10.30 11.52L10.30 11.52Q10.30 11.84 10.08 12.07L10.08 12.07L10.08 12.07Q9.86 12.29 9.55 12.29L9.55 12.29L9.55 12.29Q9.24 12.29 9.02 12.07L9.02 12.07L9.02 12.07Q8.79 11.84 8.79 11.52L8.79 11.52L8.79 11.52Q8.79 11.21 9.02 10.99L9.02 10.99L9.02 10.99Q9.24 10.77 9.55 10.77ZM20.36 11.82L20.36 12.10L20.36 12.10Q20.12 12.17 19.80 12.17L19.80 12.17L19.80 12.17Q19.56 12.17 19.24 12.11L19.24 12.11L19.24 12.11Q18.93 12.05 18.60 11.87L18.60 11.87L18.60 11.87Q18.27 11.68 17.96 11.31L17.96 11.31L17.96 11.31Q17.64 10.95 17.42 10.35L17.42 10.35L17.07 9.44L13.15 9.44L12.03 12.10L11.40 12.10L15.32 2.86L15.74 2.86L18.82 10.35L18.82 10.35Q18.98 10.74 19.13 11.01L19.13 11.01L19.13 11.01Q19.28 11.28 19.46 11.45L19.46 11.45L19.46 11.45Q19.64 11.62 19.85 11.70L19.85 11.70L19.85 11.70Q20.06 11.79 20.36 11.82L20.36 11.82ZM15.11 4.82L13.36 8.88L16.79 8.88L15.11 4.82ZM22.46 7.20L22.46 12.10L21.20 12.10L21.20 7.20L21.20 7.20Q21.20 6.57 21.02 6.18L21.02 6.18L21.02 6.18Q20.85 5.80 20.22 5.80L20.22 5.80L19.94 5.80L19.94 5.52L21.20 5.52L21.20 5.52Q21.56 5.52 21.80 5.58L21.80 5.58L21.80 5.58Q22.05 5.64 22.20 5.83L22.20 5.83L22.20 5.83Q22.34 6.02 22.40 6.35L22.40 6.35L22.40 6.35Q22.46 6.68 22.46 7.20L22.46 7.20ZM22.37 4.05L22.37 4.05L22.37 4.05Q22.37 4.34 22.20 4.51L22.20 4.51L22.20 4.51Q22.02 4.68 21.73 4.68L21.73 4.68L21.73 4.68Q21.41 4.68 21.18 4.41L21.18 4.41L21.18 4.41Q20.94 4.14 20.94 3.78L20.94 3.78L20.94 3.78Q20.94 3.49 21.12 3.32L21.12 3.32L21.12 3.32Q21.29 3.15 21.59 3.15L21.59 3.15L21.59 3.15Q21.91 3.15 22.14 3.42L22.14 3.42L22.14 3.42Q22.37 3.68 22.37 4.05Z"></path></g><!----><!----></svg>