<svg width="25" height="24" viewBox="0 0 25 24" fill="none" xmlns="http://www.w3.org/2000/svg">
<g id="Group">
<path id="Exclude" fill-rule="evenodd" clip-rule="evenodd" d="M0.833008 12.0177C0.833008 5.8718 5.74467 0.333496 12.523 0.333496C19.1497 0.333496 24.1663 5.76665 24.1663 11.9826C24.1663 19.1918 18.2863 23.6668 12.4997 23.6668C10.5863 23.6668 8.46301 23.1527 6.75967 22.1479C6.16467 21.7857 5.66301 21.5169 5.02134 21.7273L2.66467 22.4283C2.06967 22.6153 1.53301 22.1479 1.70801 21.5169L2.48967 18.8997C2.61801 18.5375 2.59467 18.1519 2.40801 17.8481C1.40467 16.002 0.833008 13.9806 0.833008 12.0177ZM10.983 12.0177C10.983 12.8473 11.648 13.5133 12.4763 13.525C13.3047 13.525 13.9697 12.8473 13.9697 12.0294C13.9697 11.1998 13.3047 10.5338 12.4763 10.5338C11.6597 10.5221 10.983 11.1998 10.983 12.0177ZM16.3613 12.0294C16.3613 12.8473 17.0263 13.525 17.8547 13.525C18.683 13.525 19.348 12.8473 19.348 12.0294C19.348 11.1998 18.683 10.5338 17.8547 10.5338C17.0263 10.5338 16.3613 11.1998 16.3613 12.0294ZM7.09801 13.525C6.28134 13.525 5.60467 12.8473 5.60467 12.0294C5.60467 11.1998 6.26967 10.5338 7.09801 10.5338C7.92634 10.5338 8.59134 11.1998 8.59134 12.0294C8.59134 12.8473 7.92634 13.5133 7.09801 13.525Z" fill="url(#paint0_linear_1613_4716)"/>
</g>
<defs>
<linearGradient id="paint0_linear_1613_4716" x1="24.1663" y1="23.6668" x2="-3.59823" y2="15.6167" gradientUnits="userSpaceOnUse">
<stop stop-color="#246BFD"/>
<stop offset="1" stop-color="#5089FF"/>
</linearGradient>
</defs>
</svg>
